# xmcd CD database file
#
# Track frame offsets:
#	150
#	20429
#	38820
#	59122
#	78167
#	97301
#	116270
#	138166
#	165939
#	181015
#	199826
#	221305
#	247771
#
# Disc length: 3596 seconds
#
# Revision: 0
# Processed by: cddbd v1.5.2PL0 Copyright (c) Steve Scherf et al.
# Submitted via: CDex 1.60beta1-cs1
#
DISCID=a10e0a0d
DTITLE=John Di Martino's Romantic Jazz Trio - The Beatles In Jazz
DYEAR=2010
DGENRE=Jazz
TTITLE0=The Fool On The Hill
TTITLE1=Let It Be
TTITLE2=Because
TTITLE3=Fixing A Hole
TTITLE4=In My Life
TTITLE5=Norwegian Wood
TTITLE6=Come Together
TTITLE7=Penny Lane
TTITLE8=Blackbird
TTITLE9=Eleanor Rigby
TTITLE10=Yesterday
TTITLE11=Got To Get You Into My Life
TTITLE12=Here, There And Everywhere
EXTD=YEAR: 2010
EXTT0=
EXTT1=
EXTT2=
EXTT3=
EXTT4=
EXTT5=
EXTT6=
EXTT7=
EXTT8=
EXTT9=
EXTT10=
EXTT11=
EXTT12=
PLAYORDER=
